<svg width="60" height="60" xmlns="http://www.w3.org/2000/svg">

 <g>
  <title>background</title>
  <rect fill="none" id="canvas_background" height="402" width="582" y="-1" x="-1"/>
 </g>
 <g>
  <title>Layer 1</title>
  <path id="svg_1" d="m59,0l-58,0c-0.552,0 -1,0.447 -1,1l0,58c0,0.553001 0.448,1 1,1l58,0c0.551998,0 1,-0.446999 1,-1l0,-58c0,-0.553 -0.448002,-1 -1,-1zm-1,58l-56,0l0,-56l56,0l0,56z"/>
  <path id="svg_2" d="m13,30.000999l0,18.999001c0,0.553001 0.448,1 1,1s1,-0.446999 1,-1l0,-15.696999l6.167999,9.251999l8,12c0.186001,0.278 0.498001,0.445 0.832001,0.445s0.646,-0.167 0.832001,-0.445l8,-12l6.167999,-9.251999l0,15.696999c0,0.553001 0.448002,1 1,1s1,-0.446999 1,-1l0,-18.999001c0,-0.118999 -0.028,-0.234999 -0.07,-0.347c-0.013,-0.035 -0.029999,-0.066 -0.047001,-0.099998c-0.017998,-0.036001 -0.028,-0.074001 -0.050999,-0.108002l-8,-12l-8,-11.999999c-0.371,-0.557 -1.293001,-0.557 -1.664001,0l-8,11.999999l-7.999999,12c-0.023,0.034 -0.033,0.072001 -0.051001,0.108002c-0.016999,0.032999 -0.033999,0.064999 -0.047,0.099998c-0.042,0.112001 -0.07,0.228001 -0.07,0.347zm17,22.195999l-6.798,-10.196999l6.798,-10.197001l6.798,10.197001l-6.798,10.196999zm8,-12l-6.798,-10.196999l6.798,-10.197001l6.798,10.197001l-6.798,10.196999zm-8,-32.393999l6.798,10.197l-6.798,10.197001l-6.798,-10.197001l6.798,-10.197zm-8,12l6.798,10.197001l-6.798,10.196999l-6.798,-10.196999l6.798,-10.197001z"/>
  <circle id="svg_3" r="2" cy="18" cx="30"/>
 </g>
</svg>