<svg width="24" height="24" xmlns="http://www.w3.org/2000/svg">

 <g>
  <title>background</title>
  <rect fill="none" id="canvas_background" height="402" width="582" y="-1" x="-1"/>
 </g>
 <g>
  <title fill="#007f7f">Layer 1</title>
  <path id="svg_2" fill="#007f7f" d="m10,1.5c0,-0.27637 -0.22363,-0.5 -0.5,-0.5l-1,0c-0.13574,0 -0.26465,0.05469 -0.35937,0.15234c-0.09375,0.09668 -0.14454,0.22754 -0.14063,0.36329c0.00293,0.09765 0.26074,9.82519 -3.61035,13.81933c-1.07031,1.104489 -2.37891,1.66504 -3.88965,1.66504c-0.27637,0 -0.5,0.223631 -0.5,0.5l0,4c0,0.265631 0.20703,0.484381 0.47266,0.49902c0.01269,0.00098 0.05664,0.00293 0.1289,0.00293c0.58496,0 2.9961,-0.13769 5.25,-2.2705c2.75293,-2.603519 4.14844,-7.055669 4.14844,-13.231449l0,-5z"/>
  <path id="svg_3" fill="#007f7f" d="m23.5,17c-1.509769,0 -2.818359,-0.55957 -3.88965,-1.66406c-3.868159,-3.99024 -3.613279,-13.72266 -3.61035,-13.82031c0.00391,-0.13575 -0.04687,-0.26661 -0.14062,-0.36329c-0.094729,-0.09765 -0.223639,-0.15234 -0.35938,-0.15234l-1,0c-0.27637,0 -0.5,0.22363 -0.5,0.5l0,5c0,6.17578 1.39551,10.62793 4.148439,13.231449c2.253901,2.132811 4.665041,2.2705 5.25,2.2705c0.07226,0 0.116211,-0.001949 0.128901,-0.00293c0.265631,-0.014639 0.47266,-0.233389 0.47266,-0.49902l0,-4c0,-0.276369 -0.223631,-0.5 -0.5,-0.5z"/>
  <path id="svg_4" fill="#007f7f" d="m13,1.51465c0.00391,-0.13477 -0.04687,-0.26563 -0.1416,-0.36328c-0.09375,-0.09668 -0.22363,-0.15137 -0.3584,-0.15137l-1,0c-0.13477,0 -0.26465,0.05469 -0.3584,0.15137c-0.09472,0.09765 -0.14551,0.22851 -0.1416,0.36328c0.00488,0.16797 0.45508,16.848629 -2.87598,20.65625c-0.129879,0.147459 -0.16015,0.35742 -0.0791,0.536129s0.25879,0.292971 0.45508,0.292971l7,0c0.19629,0 0.37402,-0.11426 0.45508,-0.292971s0.050779,-0.38867 -0.0791,-0.536129c-3.33106,-3.807621 -2.88086,-20.48828 -2.87598,-20.65625z"/>
 </g>
</svg>