<svg width="78" height="78" xmlns="http://www.w3.org/2000/svg">

 <g>
  <title>background</title>
  <rect fill="none" id="canvas_background" height="402" width="582" y="-1" x="-1"/>
 </g>
 <g>
  <title fill="#68b21e">Layer 1</title>
  <path id="svg_1" fill="#68b21e" d="m59.124001,40.998001l-6.874001,0l0,7.5l6.874001,0c5.859001,0 10.625999,4.766998 10.625999,10.625999s-4.766998,10.625999 -10.625999,10.625999c-5.809002,0 -10.543999,-4.688004 -10.622002,-10.48l0,-22.274002l10.622002,0c9.995003,0 18.125999,-8.128998 18.125999,-18.119999c0,-9.995 -8.130997,-18.125999 -18.125999,-18.125999c-9.993,0 -18.123001,8.131 -18.123001,18.127001l0.000999,6.868l7.5,-0.002001l-0.000999,-6.867001c0,-5.858999 4.765999,-10.625999 10.623001,-10.625999c5.859001,0 10.625999,4.767 10.625999,10.625999c0,5.855001 -4.766998,10.620001 -10.625999,10.620001l-22.124001,0l-0.000999,-10.620001c0,-9.995 -8.130001,-18.125999 -18.123001,-18.125999c-9.995,0 -18.125999,8.131 -18.125999,18.125999c0,9.991001 8.131,18.119999 18.125999,18.119999l6.874001,0l0,-7.499998l-6.874001,0c-5.858999,0 -10.625999,-4.764999 -10.625999,-10.620001c0,-5.858999 4.767,-10.625999 10.625999,-10.625999c5.857,0 10.623001,4.767 10.623001,10.625999l0.000999,22.122002l-10.624001,0c-9.995,0 -18.125999,8.131001 -18.125999,18.125999s8.131,18.125999 18.125999,18.125999c9.681,0 17.612,-7.630997 18.100002,-17.193001l0.023998,-7.797001l-7.5,0l-0.000999,6.864002c0,5.859001 -4.766001,10.625999 -10.623001,10.625999c-5.858999,0 -10.625999,-4.766998 -10.625999,-10.625999s4.767,-10.625999 10.625999,-10.625999l22.125999,0l-0.000999,10.625999c0,9.995003 8.130001,18.125999 18.123001,18.125999c9.995003,0 18.125999,-8.130997 18.125999,-18.125999s-8.130997,-18.125999 -18.125999,-18.125999zm-22.124001,0l0,-4.002003l4.001999,0l0,4.002003l-4.001999,0z"/>
 </g>
</svg>