<svg width="59.99999999999999" height="59.99999999999999" xmlns="http://www.w3.org/2000/svg">

 <g>
  <title>background</title>
  <rect fill="none" id="canvas_background" height="402" width="582" y="-1" x="-1"/>
 </g>
 <g>
  <title>Layer 1</title>
  <path id="svg_1" d="m59,0l-58,0c-0.553,0 -1,0.448 -1,1l0,58c0,0.551998 0.447,1 1,1l58,0c0.553001,0 1,-0.448002 1,-1l0,-58c0,-0.552 -0.446999,-1 -1,-1zm-1,58l-56,0l0,-56l56,0l0,56z"/>
  <path id="svg_2" d="m30.707001,25.292999c-0.391001,-0.390999 -1.023001,-0.390999 -1.414001,0l-9,9c-0.390999,0.390999 -0.390999,1.023003 0,1.414001l9,9c0.195002,0.195 0.451,0.292999 0.707001,0.292999s0.511999,-0.098 0.707001,-0.292999l9,-9c0.390999,-0.390999 0.390999,-1.023003 0,-1.414001l-9,-9zm-0.707001,17.292999l-7.586,-7.585999l7.586,-7.586l7.585999,7.586l-7.585999,7.585999z"/>
  <path id="svg_3" d="m14.586,31l-3.293,3.292999c-0.391,0.390999 -0.391,1.023003 0,1.414001l17.999999,18c0.195002,0.195 0.451,0.292999 0.707001,0.292999s0.511999,-0.098 0.707001,-0.292999l18,-18c0.390999,-0.390999 0.390999,-1.023003 0,-1.414001l-3.292999,-3.292999l4.292999,-4.292999c0.390999,-0.391001 0.390999,-1.023001 0,-1.414001l-19,-18.999999c-0.391001,-0.391 -1.023001,-0.391 -1.414001,0l-18.999999,18.999999c-0.391,0.391001 -0.391,1.023001 0,1.414001l4.293,4.292999zm15.414,20.585999l-16.586,-16.585999l16.586,-16.586l16.585999,16.586l-16.585999,16.585999zm0,-43.171999l17.585999,17.586l-3.585999,3.586l-13.292999,-13.293001c-0.391001,-0.390999 -1.023001,-0.390999 -1.414001,0l-13.292999,13.293001l-3.586,-3.586l17.586,-17.586z"/>
  <circle id="svg_4" r="2" cy="35" cx="30"/>
 </g>
</svg>