<svg width="43.999" height="41" xmlns="http://www.w3.org/2000/svg">

 <g>
  <title>background</title>
  <rect fill="none" id="canvas_background" height="402" width="582" y="-1" x="-1"/>
 </g>
 <g>
  <title fill="#ff56aa">Layer 1</title>
  <path fill="#ff56aa" id="svg_1" d="m33.999001,28c0.256001,0 0.512001,-0.098 0.707001,-0.292999l9,-9c0.390999,-0.391001 0.390999,-1.023001 0,-1.414001l-9,-8.999999c-0.391003,-0.391 -1.023003,-0.391 -1.414001,0l-9,8.999999c-0.091999,0.092001 -0.164999,0.203001 -0.216,0.325001c-0.101,0.245001 -0.101,0.52 0,0.764c0.051001,0.122 0.124001,0.233 0.216,0.325001l9,9c0.195,0.195 0.451,0.292999 0.707001,0.292999zm0,-2.414l-6.586,-6.586l13.171999,0l-6.585999,6.586zm0,-15.172001l6.585999,6.586l-13.171999,0l6.586,-6.586z"/>
  <path fill="#ff56aa" id="svg_2" d="m21.292,21.292999l-9,9c-0.391,0.391001 -0.391,1.023001 0,1.414001l8.999001,8.999001c0.091999,0.092999 0.202999,0.166 0.326,0.216999c0.122,0.049999 0.250999,0.077 0.382,0.077s0.26,-0.027 0.382,-0.077c0.122999,-0.050999 0.233,-0.124001 0.326,-0.216999l8.998999,-8.999001c0.391001,-0.391001 0.391001,-1.023001 0,-1.414001l-9,-9c-0.390999,-0.390999 -1.024,-0.390999 -1.414,0zm-0.292999,3.121l0,13.171999l-6.586,-6.585999l6.586,-6.586zm2,13.171999l0,-13.171999l6.585999,6.586l-6.585999,6.585999z"/>
  <path fill="#ff56aa" id="svg_3" d="m12.22,5.373c-0.295,0.366 -0.295,0.889 0,1.255c0.177,0.219 4.391,5.372 9.779,5.372s9.601999,-5.153 9.778999,-5.373c0.295002,-0.366 0.295002,-0.889 0,-1.255c-0.177,-0.219 -4.392,-5.372 -9.778999,-5.372s-9.602,5.153 -9.779,5.373zm9.779,-3.373c3.417,0 6.438999,2.734 7.653999,4c-1.215,1.266 -4.237999,4 -7.653999,4s-6.439,-2.734 -7.654,-4c1.215,-1.266 4.237,-4 7.654,-4z"/>
  <circle fill="#ff56aa" id="svg_4" r="2" cy="6" cx="21.999"/>
  <path fill="#ff56aa" id="svg_5" d="m0.076,17.618c-0.101,0.245001 -0.101,0.52 0,0.764c0.051,0.122 0.124,0.233 0.216,0.325001l9,9c0.195001,0.195 0.451,0.292999 0.707,0.292999s0.512,-0.098 0.707001,-0.292999l8.999999,-9c0.092001,-0.092001 0.165001,-0.203001 0.216002,-0.325001c0.101,-0.245001 0.101,-0.52 0,-0.764c-0.051001,-0.122 -0.124001,-0.233 -0.216002,-0.325001l-8.999999,-8.999999c-0.391001,-0.391 -1.023001,-0.391 -1.414001,0l-9,8.999999c-0.092,0.092001 -0.165,0.202002 -0.216,0.325001zm9.923,7.968l-6.585999,-6.586l13.171999,0l-6.585999,6.586zm0,-15.172001l6.585999,6.586l-13.171999,0l6.585999,-6.586z"/>
 </g>
</svg>