<svg width="1062" height="1062" xmlns="http://www.w3.org/2000/svg" clip-rule="evenodd">

 <g>
  <title>background</title>
  <rect fill="none" id="canvas_background" height="402" width="582" y="-1" x="-1"/>
 </g>
 <g>
  <title>Layer 1</title>
  <circle fill="rgb(37,183,211)" r="531.308" id="circle6" cy="531.308" cx="531.308"/>
  <path id="svg_1" fill="rgb(235,235,235)" d="m783.583008,397.44101l98.373962,98.372986c18.738037,18.738007 18.738037,49.118988 0,67.857025l-218.346985,218.346985l119.968994,-119.970032c-38.596008,-6.487 -59.406982,-24.532959 -71.440979,-52.85498c-3.044006,-14.761963 -10.125,-28.61499 -21.208008,-39.792969l-0.000977,-0.002014l0,0.000977c-0.981995,-0.98999 -1.994995,-1.958984 -3.040039,-2.906006c-32.06897,-29.072998 -82.127991,-26.695007 -114.677002,4.40802l-0.381958,0.367981c-31.452026,32.538025 -33.962036,82.864014 -4.776001,115.059021c0.94696,1.044006 1.915955,2.057983 2.906006,3.039001l0,0.000977l0.000977,0c11.177979,11.083008 25.031982,18.165039 39.79303,21.209045c28.322998,12.032959 46.367981,32.843994 52.855957,71.440979l-98.377014,98.377014c-18.738953,18.737976 -49.118958,18.737976 -67.856964,0l-316.71701,-316.716003c-18.664993,-18.665039 -18.737,-48.882019 -0.218002,-67.637024l0.218002,-0.220001l100.890015,-100.888977l-4.44101,4.439972l220.274994,-220.274979l-316.723999,316.723984l462.927979,-462.92799l-145.982971,145.984997c18.755005,-18.518997 48.971008,-18.445999 67.635986,0.219009l216.262024,216.261978l-117.888,-117.888977c38.596008,-6.487 59.406982,-24.533005 71.440979,-52.855011c3.044006,-14.761993 10.125,-28.61499 21.208008,-39.792999l0.000977,-0.001999l0,0.001007c0.981995,-0.990005 1.994995,-1.959 3.040039,-2.906006c32.19397,-29.186005 82.519958,-26.675995 115.05896,4.776001l0.367004,0.382004c31.104004,32.548996 33.481018,82.608002 4.408997,114.677002c-0.94696,1.044006 -1.915955,2.057983 -2.906006,3.039001l0,0.000977l-0.000977,0c-11.177979,11.083008 -25.031982,18.165009 -39.792969,21.209015c-28.322998,12.03299 -46.368042,32.843994 -52.856018,71.44101zm-506.475006,1.931976c38.596985,6.488007 59.40799,24.534027 71.44101,52.856018c3.043976,14.760986 10.125977,28.61499 21.208984,39.792999l0,0.001007l0.001007,0c0.980988,0.98999 1.993988,1.958984 3.039001,2.905975c32.195007,29.186005 82.520996,26.675995 115.05899,-4.77597l0.367004,-0.382019c31.104004,-32.549011 33.481018,-82.608002 4.408997,-114.677002c-0.946991,-1.044983 -1.915985,-2.057983 -2.906006,-3.039001l0.001007,-0.001007l-0.001984,0c-11.178009,-11.082977 -25.032013,-18.164978 -39.792999,-21.208984c-28.323029,-12.03299 -46.368011,-32.843994 -52.856018,-71.44101l-115.527985,115.529022l-4.44101,4.439972zm121.894012,382.648987c-38.596008,6.487 -59.407013,24.53302 -71.44101,52.855042c-3.044006,14.761963 -10.125,28.61499 -21.208008,39.792969l-0.001007,0.002014l0,-0.000977c-0.981995,0.98999 -1.994995,1.958984 -3.039978,2.906006c-32.194,29.185974 -82.520004,26.675964 -115.059006,-4.776001l-0.367004,-0.382019c-31.104004,-32.549011 -33.481003,-82.608032 -4.408997,-114.677002c0.946991,-1.044006 1.916,-2.057007 2.905991,-3.039001l0,-0.000977l0.001007,0c11.177994,-11.083008 25.031998,-18.165039 39.792999,-21.209045c28.322998,-12.032959 46.368011,-32.843994 52.855988,-71.440979l119.969025,119.969971z"/>
 </g>
</svg>