<svg width="64" height="64" xmlns="http://www.w3.org/2000/svg">

 <g>
  <title>background</title>
  <rect fill="none" id="canvas_background" height="402" width="582" y="-1" x="-1"/>
 </g>
 <g>
  <title fill="#00ffff">Layer 1</title>
  <path id="svg_1" fill="#00ffff" d="m59,33.599998c0,-2.699999 -1.700001,-4.999998 -4,-5.999998c0.900002,-0.9 1.5,-2.200001 1.5,-3.6c0,-2.799999 -2.299999,-5.1 -5.099998,-5.1c-0.200001,0 -0.400002,0 -0.5,0c0.299999,-0.699999 0.5,-1.5 0.5,-2.299999c0,-2.8 -2.300003,-5.1 -5.100002,-5.1c-0.899998,0 -1.700001,0.2 -2.399998,0.6c-0.700001,-2 -2.600002,-3.700001 -4.800003,-3.700001c-2.799999,0 -5,2.6 -5.099998,4.6l0,0l0,35l0.099998,0c0,0 0,0 0,0c0,3.599998 2.900002,6.400002 6.5,6.400002c3.200001,0 5.800003,-2.300003 6.400002,-5.300003c0.599998,0.200001 1.299999,0.300003 2,0.300003c3.599998,0 6.5,-2.900002 6.5,-6.5c0,-1.100002 -0.299999,-2.200001 -0.799999,-3.200001c2.399998,-0.799999 4.299999,-3.200001 4.299999,-6.100002z"/>
  <path id="svg_2" fill="#00ffff" d="m5,33.599998c0,-2.699999 1.7,-4.999998 4,-5.999998c-0.9,-0.9 -1.5,-2.200001 -1.5,-3.6c0,-2.799999 2.3,-5.1 5.1,-5.1c0.2,0 0.4,0 0.5,0c-0.3,-0.699999 -0.5,-1.5 -0.5,-2.299999c0,-2.8 2.299999,-5.1 5.1,-5.1c0.9,0 1.699999,0.2 2.4,0.6c0.699999,-2 2.6,-3.700001 4.799999,-3.700001c2.800001,0 5,2.6 5.1,4.6l0,0l0,35l-0.1,0c0,0 0,0 0,0c0,3.599998 -2.9,6.400002 -6.5,6.400002c-3.199999,0 -5.799999,-2.300003 -6.4,-5.300003c-0.6,0.200001 -1.3,0.300003 -2,0.300003c-3.6,0 -6.5,-2.900002 -6.5,-6.5c0,-1.100002 0.3,-2.200001 0.8,-3.200001c-2.4,-0.799999 -4.3,-3.200001 -4.3,-6.100002z"/>
  <path id="svg_3" stroke-width="2" stroke-miterlimit="10" stroke-linejoin="round" stroke-linecap="round" stroke="#2C3E50" fill="#00ffff" d="m59,33.599998c0,-2.699999 -1.700001,-4.999998 -4,-5.999998c0.900002,-0.9 1.5,-2.200001 1.5,-3.6c0,-2.799999 -2.299999,-5.1 -5.099998,-5.1c-0.200001,0 -0.400002,0 -0.5,0c0.299999,-0.699999 0.5,-1.5 0.5,-2.299999c0,-2.8 -2.300003,-5.1 -5.100002,-5.1c-0.899998,0 -1.700001,0.2 -2.399998,0.6c-0.700001,-2 -2.600002,-3.700001 -4.800003,-3.700001c-2.799999,0 -5,2.6 -5.099998,4.6l0,0l0,35l0.099998,0c0,0 0,0 0,0c0,3.599998 2.900002,6.400002 6.5,6.400002c3.200001,0 5.800003,-2.300003 6.400002,-5.300003c0.599998,0.200001 1.299999,0.300003 2,0.300003c3.599998,0 6.5,-2.900002 6.5,-6.5c0,-1.100002 -0.299999,-2.200001 -0.799999,-3.200001c2.399998,-0.799999 4.299999,-3.200001 4.299999,-6.100002z"/>
  <path id="svg_4" stroke-width="2" stroke-miterlimit="10" stroke-linejoin="round" stroke-linecap="round" stroke="#2C3E50" fill="#00ffff" d="m5,33.599998c0,-2.699999 1.7,-4.999998 4,-5.999998c-0.9,-0.9 -1.5,-2.200001 -1.5,-3.6c0,-2.799999 2.3,-5.1 5.1,-5.1c0.2,0 0.4,0 0.5,0c-0.3,-0.699999 -0.5,-1.5 -0.5,-2.299999c0,-2.8 2.299999,-5.1 5.1,-5.1c0.9,0 1.699999,0.2 2.4,0.6c0.699999,-2 2.6,-3.700001 4.799999,-3.700001c2.800001,0 5,2.6 5.1,4.6l0,0l0,35l-0.1,0c0,0 0,0 0,0c0,3.599998 -2.9,6.400002 -6.5,6.400002c-3.199999,0 -5.799999,-2.300003 -6.4,-5.300003c-0.6,0.200001 -1.3,0.300003 -2,0.300003c-3.6,0 -6.5,-2.900002 -6.5,-6.5c0,-1.100002 0.3,-2.200001 0.8,-3.200001c-2.4,-0.799999 -4.3,-3.200001 -4.3,-6.100002z"/>
  <path id="svg_5" stroke-width="2" stroke-miterlimit="10" stroke-linejoin="round" stroke-linecap="round" stroke="#2C3E50" fill="#00ffff" d="m15.5,35.200001c0,0 4.6,-0.700001 6.6,3.799999c2.199999,5 -0.700001,8.700001 -5,10.099998"/>
  <path id="svg_6" stroke-width="2" stroke-miterlimit="10" stroke-linejoin="round" stroke-linecap="round" stroke="#2C3E50" fill="#00ffff" d="m25.6,20.6c0,0 -2.5,4 -7,3s-5.400001,-4.700001 -5.400001,-4.700001"/>
  <path id="svg_7" stroke-width="2" stroke-miterlimit="10" stroke-linejoin="round" stroke-linecap="round" stroke="#2C3E50" fill="#00ffff" d="m25.6,29.6c-0.1,-0.1 -1.300001,-4.300001 -6.5,-5.800001"/>
  <path id="svg_8" stroke-width="2" stroke-miterlimit="10" stroke-linejoin="round" stroke-linecap="round" stroke="#2C3E50" fill="#00ffff" d="m43.400002,30.200001c0,0 -1.200001,4.399998 2.599998,7.799999c1.799999,1.599998 5.400002,2.099998 8.5,1.700001"/>
  <path id="svg_9" stroke-width="2" stroke-miterlimit="10" stroke-linejoin="round" stroke-linecap="round" stroke="#2C3E50" fill="#00ffff" d="m42,22c0,0 2.700001,1.700001 5,1s3.900002,-4.1 3.900002,-4.1"/>
  <path id="svg_10" stroke-width="2" stroke-miterlimit="10" stroke-linejoin="round" stroke-linecap="round" stroke="#2C3E50" fill="#00ffff" d="m40,44c0,0 1.299999,-5.099998 7.299999,-5.099998"/>
 </g>
</svg>