<svg width="60.00000000000001" height="60.00000000000001" xmlns="http://www.w3.org/2000/svg">

 <g>
  <title>background</title>
  <rect fill="none" id="canvas_background" height="402" width="582" y="-1" x="-1"/>
 </g>
 <g>
  <title>Layer 1</title>
  <path id="svg_1" d="m59,0l-58,0c-0.552,0 -1,0.447 -1,1l0,58c0,0.553001 0.448,1 1,1l58,0c0.551998,0 1,-0.446999 1,-1l0,-58c0,-0.553 -0.448002,-1 -1,-1zm-1,58l-56,0l0,-56l56,0l0,56z"/>
  <path id="svg_2" d="m30,37c6.993999,0 12.514,-6.073999 12.744999,-6.333c0.34,-0.379999 0.34,-0.954 0,-1.334c-0.230999,-0.259001 -5.750999,-6.333 -12.744999,-6.333s-12.514,6.073999 -12.745001,6.333c-0.339998,0.379999 -0.339998,0.954 0,1.334c0.231001,0.259001 5.751001,6.333 12.745001,6.333zm0,-12c4.810001,0 9.012001,3.500999 10.591,5c-1.578999,1.499001 -5.780998,5 -10.591,5s-9.011999,-3.500999 -10.591,-5c1.579,-1.499001 5.781,-5 10.591,-5z"/>
  <circle id="svg_3" r="2" cy="30" cx="30"/>
  <path id="svg_4" d="m10,13c0.552,0 1,-0.447 1,-1l0,-4c0,-0.553 -0.448,-1 -1,-1s-1,0.447 -1,1l0,4c0,0.553 0.448,1 1,1z"/>
  <path id="svg_5" d="m15,13c0.552,0 1,-0.447 1,-1l0,-4c0,-0.553 -0.448,-1 -1,-1s-1,0.447 -1,1l0,4c0,0.553 0.448,1 1,1z"/>
  <path id="svg_6" d="m20,13c0.552,0 1,-0.447 1,-1l0,-4c0,-0.553 -0.448,-1 -1,-1s-1,0.447 -1,1l0,4c0,0.553 0.448,1 1,1z"/>
  <path id="svg_7" d="m25,13c0.552,0 1,-0.447 1,-1l0,-4c0,-0.553 -0.448,-1 -1,-1s-1,0.447 -1,1l0,4c0,0.553 0.448,1 1,1z"/>
  <path id="svg_8" d="m30,13c0.552,0 1,-0.447 1,-1l0,-4c0,-0.553 -0.448,-1 -1,-1s-1,0.447 -1,1l0,4c0,0.553 0.448,1 1,1z"/>
  <path id="svg_9" d="m35,13c0.551998,0 1,-0.447 1,-1l0,-4c0,-0.553 -0.448002,-1 -1,-1s-1,0.447 -1,1l0,4c0,0.553 0.448002,1 1,1z"/>
  <path id="svg_10" d="m40,13c0.551998,0 1,-0.447 1,-1l0,-4c0,-0.553 -0.448002,-1 -1,-1s-1,0.447 -1,1l0,4c0,0.553 0.448002,1 1,1z"/>
  <path id="svg_11" d="m45,13c0.551998,0 1,-0.447 1,-1l0,-4c0,-0.553 -0.448002,-1 -1,-1s-1,0.447 -1,1l0,4c0,0.553 0.448002,1 1,1z"/>
  <path id="svg_12" d="m50,13c0.551998,0 1,-0.447 1,-1l0,-4c0,-0.553 -0.448002,-1 -1,-1s-1,0.447 -1,1l0,4c0,0.553 0.448002,1 1,1z"/>
  <path id="svg_13" d="m10,21c0.552,0 1,-0.447001 1,-1l0,-4c0,-0.553 -0.448,-1 -1,-1s-1,0.447 -1,1l0,4c0,0.552999 0.448,1 1,1z"/>
  <path id="svg_14" d="m15,21c0.552,0 1,-0.447001 1,-1l0,-4c0,-0.553 -0.448,-1 -1,-1s-1,0.447 -1,1l0,4c0,0.552999 0.448,1 1,1z"/>
  <path id="svg_15" d="m20,21c0.552,0 1,-0.447001 1,-1l0,-4c0,-0.553 -0.448,-1 -1,-1s-1,0.447 -1,1l0,4c0,0.552999 0.448,1 1,1z"/>
  <path id="svg_16" d="m25,21c0.552,0 1,-0.447001 1,-1l0,-4c0,-0.553 -0.448,-1 -1,-1s-1,0.447 -1,1l0,4c0,0.552999 0.448,1 1,1z"/>
  <path id="svg_17" d="m30,21c0.552,0 1,-0.447001 1,-1l0,-4c0,-0.553 -0.448,-1 -1,-1s-1,0.447 -1,1l0,4c0,0.552999 0.448,1 1,1z"/>
  <path id="svg_18" d="m35,21c0.551998,0 1,-0.447001 1,-1l0,-4c0,-0.553 -0.448002,-1 -1,-1s-1,0.447 -1,1l0,4c0,0.552999 0.448002,1 1,1z"/>
  <path id="svg_19" d="m40,21c0.551998,0 1,-0.447001 1,-1l0,-4c0,-0.553 -0.448002,-1 -1,-1s-1,0.447 -1,1l0,4c0,0.552999 0.448002,1 1,1z"/>
  <path id="svg_20" d="m45,21c0.551998,0 1,-0.447001 1,-1l0,-4c0,-0.553 -0.448002,-1 -1,-1s-1,0.447 -1,1l0,4c0,0.552999 0.448002,1 1,1z"/>
  <path id="svg_21" d="m50,21c0.551998,0 1,-0.447001 1,-1l0,-4c0,-0.553 -0.448002,-1 -1,-1s-1,0.447 -1,1l0,4c0,0.552999 0.448002,1 1,1z"/>
  <path id="svg_22" d="m10,29c0.552,0 1,-0.447001 1,-1l0,-4c0,-0.552999 -0.448,-1 -1,-1s-1,0.447001 -1,1l0,4c0,0.552999 0.448,1 1,1z"/>
  <path id="svg_23" d="m15,29c0.552,0 1,-0.447001 1,-1l0,-4c0,-0.552999 -0.448,-1 -1,-1s-1,0.447001 -1,1l0,4c0,0.552999 0.448,1 1,1z"/>
  <path id="svg_24" d="m45,29c0.551998,0 1,-0.447001 1,-1l0,-4c0,-0.552999 -0.448002,-1 -1,-1s-1,0.447001 -1,1l0,4c0,0.552999 0.448002,1 1,1z"/>
  <path id="svg_25" d="m50,29c0.551998,0 1,-0.447001 1,-1l0,-4c0,-0.552999 -0.448002,-1 -1,-1s-1,0.447001 -1,1l0,4c0,0.552999 0.448002,1 1,1z"/>
  <path id="svg_26" d="m10,37c0.552,0 1,-0.446999 1,-1l0,-4c0,-0.552999 -0.448,-1 -1,-1s-1,0.447001 -1,1l0,4c0,0.553001 0.448,1 1,1z"/>
  <path id="svg_27" d="m15,37c0.552,0 1,-0.446999 1,-1l0,-4c0,-0.552999 -0.448,-1 -1,-1s-1,0.447001 -1,1l0,4c0,0.553001 0.448,1 1,1z"/>
  <path id="svg_28" d="m45,37c0.551998,0 1,-0.446999 1,-1l0,-4c0,-0.552999 -0.448002,-1 -1,-1s-1,0.447001 -1,1l0,4c0,0.553001 0.448002,1 1,1z"/>
  <path id="svg_29" d="m50,37c0.551998,0 1,-0.446999 1,-1l0,-4c0,-0.552999 -0.448002,-1 -1,-1s-1,0.447001 -1,1l0,4c0,0.553001 0.448002,1 1,1z"/>
  <path id="svg_30" d="m10,45c0.552,0 1,-0.446999 1,-1l0,-4c0,-0.553001 -0.448,-1 -1,-1s-1,0.446999 -1,1l0,4c0,0.553001 0.448,1 1,1z"/>
  <path id="svg_31" d="m15,45c0.552,0 1,-0.446999 1,-1l0,-4c0,-0.553001 -0.448,-1 -1,-1s-1,0.446999 -1,1l0,4c0,0.553001 0.448,1 1,1z"/>
  <path id="svg_32" d="m20,39c-0.552,0 -1,0.446999 -1,1l0,4c0,0.553001 0.448,1 1,1s1,-0.446999 1,-1l0,-4c0,-0.553001 -0.448,-1 -1,-1z"/>
  <path id="svg_33" d="m25,39c-0.552,0 -1,0.446999 -1,1l0,4c0,0.553001 0.448,1 1,1s1,-0.446999 1,-1l0,-4c0,-0.553001 -0.448,-1 -1,-1z"/>
  <path id="svg_34" d="m30,39c-0.552,0 -1,0.446999 -1,1l0,4c0,0.553001 0.448,1 1,1s1,-0.446999 1,-1l0,-4c0,-0.553001 -0.448,-1 -1,-1z"/>
  <path id="svg_35" d="m35,39c-0.551998,0 -1,0.446999 -1,1l0,4c0,0.553001 0.448002,1 1,1s1,-0.446999 1,-1l0,-4c0,-0.553001 -0.448002,-1 -1,-1z"/>
  <path id="svg_36" d="m40,39c-0.551998,0 -1,0.446999 -1,1l0,4c0,0.553001 0.448002,1 1,1s1,-0.446999 1,-1l0,-4c0,-0.553001 -0.448002,-1 -1,-1z"/>
  <path id="svg_37" d="m45,45c0.551998,0 1,-0.446999 1,-1l0,-4c0,-0.553001 -0.448002,-1 -1,-1s-1,0.446999 -1,1l0,4c0,0.553001 0.448002,1 1,1z"/>
  <path id="svg_38" d="m50,45c0.551998,0 1,-0.446999 1,-1l0,-4c0,-0.553001 -0.448002,-1 -1,-1s-1,0.446999 -1,1l0,4c0,0.553001 0.448002,1 1,1z"/>
  <path id="svg_39" d="m10,53c0.552,0 1,-0.446999 1,-1l0,-4c0,-0.553001 -0.448,-1 -1,-1s-1,0.446999 -1,1l0,4c0,0.553001 0.448,1 1,1z"/>
  <path id="svg_40" d="m15,53c0.552,0 1,-0.446999 1,-1l0,-4c0,-0.553001 -0.448,-1 -1,-1s-1,0.446999 -1,1l0,4c0,0.553001 0.448,1 1,1z"/>
  <path id="svg_41" d="m20,47c-0.552,0 -1,0.446999 -1,1l0,4c0,0.553001 0.448,1 1,1s1,-0.446999 1,-1l0,-4c0,-0.553001 -0.448,-1 -1,-1z"/>
  <path id="svg_42" d="m25,47c-0.552,0 -1,0.446999 -1,1l0,4c0,0.553001 0.448,1 1,1s1,-0.446999 1,-1l0,-4c0,-0.553001 -0.448,-1 -1,-1z"/>
  <path id="svg_43" d="m30,47c-0.552,0 -1,0.446999 -1,1l0,4c0,0.553001 0.448,1 1,1s1,-0.446999 1,-1l0,-4c0,-0.553001 -0.448,-1 -1,-1z"/>
  <path id="svg_44" d="m35,47c-0.551998,0 -1,0.446999 -1,1l0,4c0,0.553001 0.448002,1 1,1s1,-0.446999 1,-1l0,-4c0,-0.553001 -0.448002,-1 -1,-1z"/>
  <path id="svg_45" d="m40,47c-0.551998,0 -1,0.446999 -1,1l0,4c0,0.553001 0.448002,1 1,1s1,-0.446999 1,-1l0,-4c0,-0.553001 -0.448002,-1 -1,-1z"/>
  <path id="svg_46" d="m45,53c0.551998,0 1,-0.446999 1,-1l0,-4c0,-0.553001 -0.448002,-1 -1,-1s-1,0.446999 -1,1l0,4c0,0.553001 0.448002,1 1,1z"/>
  <path id="svg_47" d="m50,53c0.551998,0 1,-0.446999 1,-1l0,-4c0,-0.553001 -0.448002,-1 -1,-1s-1,0.446999 -1,1l0,4c0,0.553001 0.448002,1 1,1z"/>
 </g>
</svg>