<svg width="60" height="60" xmlns="http://www.w3.org/2000/svg">

 <g>
  <title>background</title>
  <rect fill="none" id="canvas_background" height="402" width="582" y="-1" x="-1"/>
 </g>
 <g>
  <title>Layer 1</title>
  <path id="svg_1" d="m59,0l-58,0c-0.552,0 -1,0.447 -1,1l0,58c0,0.553001 0.448,1 1,1l58,0c0.551998,0 1,-0.446999 1,-1l0,-58c0,-0.553 -0.448002,-1 -1,-1zm-1,58l-56,0l0,-56l56,0l0,56z"/>
  <path id="svg_2" d="m19,42c5.514,0 10,4.486 10,10c0,0.553001 0.448,1 1,1s1,-0.446999 1,-1c0,-5.514 4.486,-10 10,-10c8.271,0 15,-6.729 15,-15s-6.729,-15 -15,-15c-4.216,0 -8.161999,1.742 -11,4.818001c-2.837999,-3.076001 -6.784,-4.818001 -11,-4.818001c-8.271,0 -15,6.729 -15,15s6.729,15 15,15zm0,-28c4.003,0 7.726,1.813 10.214001,4.976999c0.379999,0.482 1.191999,0.482 1.571999,0c2.487999,-3.164 6.211002,-4.976999 10.214001,-4.976999c7.167999,0 13,5.832001 13,13s-5.832001,13 -13,13c-4.912998,0 -9.146,2.967999 -11,7.205002c-1.854,-4.237003 -6.087,-7.205002 -11,-7.205002c-7.168,0 -13,-5.832001 -13,-13s5.832,-13 13,-13z"/>
  <path id="svg_3" d="m30,37c6.993999,0 12.514,-6.073999 12.744999,-6.333c0.34,-0.379999 0.34,-0.954 0,-1.334c-0.230999,-0.259001 -5.750999,-6.333 -12.744999,-6.333s-12.514,6.073999 -12.745001,6.333c-0.339998,0.379999 -0.339998,0.954 0,1.334c0.231001,0.259001 5.751001,6.333 12.745001,6.333zm0,-12c4.810001,0 9.012001,3.500999 10.591,5c-1.578999,1.499001 -5.780998,5 -10.591,5s-9.011999,-3.500999 -10.591,-5c1.579,-1.499001 5.781,-5 10.591,-5z"/>
  <circle id="svg_4" r="2" cy="30" cx="30"/>
 </g>
</svg>