<svg width="59.99999999999999" height="59.99999999999999" xmlns="http://www.w3.org/2000/svg">

 <g>
  <title>background</title>
  <rect fill="none" id="canvas_background" height="402" width="582" y="-1" x="-1"/>
 </g>
 <g>
  <title>Layer 1</title>
  <path id="svg_1" d="m59,0l-58,0c-0.552,0 -1,0.448 -1,1l0,58c0,0.551998 0.448,1 1,1l58,0c0.553001,0 1,-0.448002 1,-1l0,-58c0,-0.552 -0.446999,-1 -1,-1zm-1,58l-56,0l0,-56l56,0l0,56z"/>
  <path id="svg_2" d="m15.504,38.868l14,8c0.154001,0.088001 0.325001,0.132 0.496,0.132s0.341999,-0.043999 0.496,-0.132l13.999998,-8c0.312,-0.178001 0.504002,-0.508999 0.504002,-0.868l0,-16c0,-0.358999 -0.192001,-0.690001 -0.504002,-0.868l-13.999998,-8c-0.308001,-0.176 -0.684999,-0.176 -0.992001,0l-14,8c-0.311999,0.177999 -0.504,0.509001 -0.504,0.868l0,16c0,0.359001 0.192,0.689999 0.504,0.868zm1.496,-16.288l13,-7.427999l13,7.427999l0,14.839998l-13,7.428001l-13,-7.428001l0,-14.839998z"/>
  <path id="svg_3" d="m21.486,14.874l8.514,-4.73l8.514999,4.73c0.153,0.085 0.32,0.126 0.484001,0.126c0.352001,0 0.692001,-0.186 0.875,-0.514c0.269001,-0.483 0.095001,-1.092 -0.389,-1.36l-9,-5c-0.303001,-0.168 -0.669001,-0.168 -0.972,0l-9,5c-0.482,0.268 -0.657,0.877 -0.388,1.36c0.268999,0.482 0.877001,0.656 1.361,0.388z"/>
  <path id="svg_4" d="m38.514999,45.125999l-8.514999,4.73l-8.514,-4.73c-0.483999,-0.267998 -1.092001,-0.093998 -1.360001,0.388c-0.268999,0.483002 -0.094,1.091999 0.388,1.360001l9,5c0.152,0.084 0.319,0.125999 0.486,0.125999s0.334,-0.042 0.486,-0.125999l9,-5c0.483002,-0.268002 0.657001,-0.876999 0.389,-1.360001c-0.27,-0.481998 -0.877998,-0.655998 -1.360001,-0.388z"/>
  <path id="svg_5" d="m48,36c0.553001,0 1,-0.448002 1,-1l0,-11c0,-0.552 -0.446999,-1 -1,-1s-1,0.448 -1,1l0,11c0,0.551998 0.446999,1 1,1z"/>
  <path id="svg_6" d="m12,36c0.552,0 1,-0.448002 1,-1l0,-11c0,-0.552 -0.448,-1 -1,-1s-1,0.448 -1,1l0,11c0,0.551998 0.448,1 1,1z"/>
  <path id="svg_7" d="m39.778,30.627001c0.296001,-0.366001 0.296001,-0.889 0,-1.255001c-0.175999,-0.219 -4.390999,-5.372 -9.778,-5.372c-5.386999,0 -9.601999,5.153 -9.778999,5.372999c-0.295,0.366001 -0.295,0.889 0,1.255001c0.177,0.219 4.392,5.372 9.778999,5.372c5.387001,0 9.602001,-5.153 9.778,-5.372999zm-17.431999,-0.627001c1.215,-1.266001 4.237999,-4 7.653999,-4c3.417,0 6.438,2.733999 7.653999,4c-1.216,1.266001 -4.237,4 -7.653999,4c-3.417,0 -6.438999,-2.733999 -7.653999,-4z"/>
  <circle id="svg_8" r="2" cy="30" cx="30"/>
 </g>
</svg>