<svg width="60.00000000000001" height="60.00000000000001" xmlns="http://www.w3.org/2000/svg">

 <g>
  <title>background</title>
  <rect fill="none" id="canvas_background" height="402" width="582" y="-1" x="-1"/>
 </g>
 <g>
  <title fill="#aaaa47">Layer 1</title>
  <path fill="#aaaa47" id="svg_1" d="m59,29c-15.438999,0 -28,-12.561001 -28,-28c0,-0.552 -0.448,-1 -1,-1s-1,0.448 -1,1c0,15.438999 -12.561001,28 -28,28c-0.552,0 -1,0.448 -1,1s0.448,1 1,1c15.438999,0 28,12.561001 28,28c0,0.551998 0.448,1 1,1s1,-0.448002 1,-1c0,-15.438999 12.561001,-28 28,-28c0.551998,0 1,-0.448 1,-1s-0.448002,-1 -1,-1zm-29,22.321999c-2.750999,-10.382 -10.940001,-18.570999 -21.322,-21.321999c10.381999,-2.750999 18.571,-10.940001 21.322,-21.322c2.750999,10.381999 10.939999,18.571 21.321999,21.322c-10.382,2.750999 -18.570999,10.939999 -21.321999,21.321999z"/>
  <path fill="#aaaa47" id="svg_2" d="m30,23c-3.860001,0 -7,3.139999 -7,7s3.139999,7 7,7s7,-3.139999 7,-7s-3.139999,-7 -7,-7zm0,12c-2.757,0 -5,-2.243 -5,-5s2.243,-5 5,-5s5,2.243 5,5s-2.243,5 -5,5z"/>
  <circle fill="#aaaa47" id="svg_3" r="2" cy="30" cx="30"/>
 </g>
</svg>