<svg width="60" height="60" xmlns="http://www.w3.org/2000/svg">

 <g>
  <title>background</title>
  <rect fill="none" id="canvas_background" height="402" width="582" y="-1" x="-1"/>
 </g>
 <g>
  <title>Layer 1</title>
  <path id="svg_1" d="m59,0l-58,0c-0.552,0 -1,0.448 -1,1l0,58c0,0.551998 0.448,1 1,1l58,0c0.551998,0 1,-0.448002 1,-1l0,-58c0,-0.552 -0.448002,-1 -1,-1zm-1,28.975c-14.645,-0.518 -26.457001,-12.33 -26.975,-26.975l26.975,0l0,26.975zm-6.678001,1.025c-10.382,2.750999 -18.570999,10.939999 -21.321999,21.321999c-2.750999,-10.382 -10.940001,-18.570999 -21.322,-21.321999c10.381999,-2.750999 18.571,-10.940001 21.322,-21.322c2.750999,10.381999 10.939999,18.571 21.321999,21.322zm-22.346998,-28c-0.518,14.645 -12.33,26.457001 -26.975,26.975l0,-26.975l26.975,0zm-26.975,29.025c14.645,0.518 26.457001,12.33 26.975,26.975l-26.975,0l0,-26.975zm29.025,26.975c0.518,-14.645 12.33,-26.457001 26.975,-26.975l0,26.975l-26.975,0z"/>
  <path id="svg_2" d="m30,23c-3.860001,0 -7,3.139999 -7,7s3.139999,7 7,7s7,-3.139999 7,-7s-3.139999,-7 -7,-7zm0,12c-2.757,0 -5,-2.243 -5,-5s2.243,-5 5,-5s5,2.243 5,5s-2.243,5 -5,5z"/>
  <circle id="svg_3" r="2" cy="30" cx="30"/>
 </g>
</svg>