<svg width="60" height="52" xmlns="http://www.w3.org/2000/svg">

 <g>
  <title>background</title>
  <rect fill="none" id="canvas_background" height="402" width="582" y="-1" x="-1"/>
 </g>
 <g>
  <title fill="#3f007f">Layer 1</title>
  <path fill="#3f007f" id="svg_1" d="m59,0c-2.778,0 -4.209999,1.185 -5.473999,2.229c-1.148003,0.951 -2.139,1.771 -4.197002,1.771s-3.049999,-0.821 -4.197998,-1.771c-1.264,-1.044 -2.695,-2.229 -5.473,-2.229c-2.776001,0 -4.208,1.185 -5.471001,2.23c-1.146999,0.95 -2.138,1.77 -4.194,1.77c-2.056999,0 -3.048,-0.82 -4.195999,-1.771c-1.263,-1.044 -2.694,-2.229 -5.471001,-2.229c-2.776001,0 -4.207001,1.185 -5.47,2.229c-1.148,0.951 -2.139,1.771 -4.194,1.771c-2.056,0 -3.046,-0.82 -4.193,-1.77c-1.262,-1.045 -2.693,-2.23 -5.469,-2.23c-0.552,0 -1,0.448 -1,1s0.448,1 1,1c2.055,0 3.046,0.82 4.193,1.771c1.263,1.044 2.693,2.229 5.469,2.229c2.776,0 4.207001,-1.185 5.47,-2.229c1.146999,-0.951 2.138,-1.771 4.194,-1.771c2.056999,0 3.048,0.82 4.195999,1.771c1.263,1.044 2.694,2.229 5.471001,2.229c2.776001,0 4.207001,-1.185 5.470001,-2.229c1.146999,-0.951 2.139,-1.771 4.195,-1.771c2.057999,0 3.049,0.82 4.196999,1.771c1.264,1.044 2.695999,2.229 5.473999,2.229c2.777,0 4.209,-1.185 5.473,-2.229c1.148003,-0.95 2.140003,-1.771 4.198002,-1.771c0.553001,0 1,-0.448 1,-1s-0.446999,-1 -1,-1z"/>
  <path fill="#3f007f" id="svg_2" d="m59,8c-2.778,0 -4.209999,1.185 -5.473999,2.229c-1.148003,0.951 -2.139,1.771 -4.197002,1.771s-3.049999,-0.821 -4.197998,-1.771c-1.264,-1.044 -2.695,-2.229 -5.473,-2.229c-2.776001,0 -4.208,1.185 -5.471001,2.23c-1.146999,0.950001 -2.138,1.77 -4.194,1.77c-2.056999,0 -3.048,-0.82 -4.195999,-1.771c-1.263,-1.044 -2.694,-2.229 -5.471001,-2.229c-2.776001,0 -4.207001,1.185 -5.47,2.229c-1.148,0.951 -2.139,1.771 -4.194,1.771c-2.054999,0 -3.045,-0.82 -4.193,-1.77c-1.262,-1.044999 -2.693,-2.23 -5.469,-2.23c-0.552,0 -1,0.448 -1,1s0.448,1 1,1c2.055,0 3.046,0.82 4.193,1.771c1.263,1.044 2.693,2.229 5.469,2.229c2.776,0 4.207001,-1.185 5.47,-2.229c1.146999,-0.951 2.138,-1.771 4.194,-1.771c2.056999,0 3.048,0.82 4.195999,1.771c1.263,1.044 2.694,2.229 5.471001,2.229c2.776001,0 4.207001,-1.185 5.470001,-2.229c1.146999,-0.951 2.139,-1.771 4.195,-1.771c2.057999,0 3.049,0.82 4.196999,1.771c1.264,1.044 2.695999,2.229 5.473999,2.229c2.777,0 4.209,-1.185 5.473,-2.229c1.148003,-0.95 2.140003,-1.771 4.198002,-1.771c0.553001,0 1,-0.448 1,-1s-0.446999,-1 -1,-1z"/>
  <path fill="#3f007f" id="svg_3" d="m59,16c-2.778,0 -4.209999,1.184999 -5.473999,2.229c-1.148003,0.951 -2.139,1.771 -4.197002,1.771s-3.049999,-0.820999 -4.197998,-1.771c-1.264,-1.044001 -2.695,-2.229 -5.473,-2.229c-2.776001,0 -4.208,1.184999 -5.471001,2.23c-1.146999,0.950001 -2.138,1.77 -4.194,1.77c-2.056999,0 -3.048,-0.82 -4.195999,-1.771c-1.263,-1.044001 -2.694,-2.229 -5.471001,-2.229c-2.776001,0 -4.207001,1.184999 -5.47,2.229c-1.148,0.951 -2.139,1.771 -4.194,1.771c-2.054999,0 -3.045,-0.82 -4.193,-1.77c-1.262,-1.045 -2.693,-2.23 -5.469,-2.23c-0.552,0 -1,0.448 -1,1s0.448,1 1,1c2.055,0 3.046,0.82 4.193,1.771c1.263,1.044001 2.693,2.229 5.469,2.229c2.776,0 4.207001,-1.184999 5.47,-2.229c1.146999,-0.951 2.138,-1.771 4.194,-1.771c2.056999,0 3.048,0.82 4.195999,1.771c1.263,1.044001 2.694,2.229 5.471001,2.229c2.776001,0 4.207001,-1.184999 5.470001,-2.229c1.146999,-0.951 2.139,-1.771 4.195,-1.771c2.057999,0 3.049,0.82 4.196999,1.771c1.264,1.044001 2.695999,2.229 5.473999,2.229c2.777,0 4.209,-1.184999 5.473,-2.229c1.148003,-0.950001 2.140003,-1.771 4.198002,-1.771c0.553001,0 1,-0.448 1,-1s-0.446999,-1 -1,-1z"/>
  <path fill="#3f007f" id="svg_4" d="m59,24c-2.778,0 -4.209999,1.184999 -5.473999,2.229c-1.148003,0.951 -2.139,1.771 -4.197002,1.771s-3.049999,-0.820999 -4.197998,-1.771c-1.264,-1.044001 -2.695,-2.229 -5.473,-2.229c-2.776001,0 -4.208,1.184999 -5.471001,2.23c-1.146999,0.950001 -2.138,1.77 -4.194,1.77c-2.056999,0 -3.048,-0.82 -4.195999,-1.771c-1.263,-1.044001 -2.694,-2.229 -5.471001,-2.229c-2.776001,0 -4.207001,1.184999 -5.47,2.229c-1.148,0.951 -2.139,1.771 -4.194,1.771c-2.054999,0 -3.045,-0.82 -4.193,-1.77c-1.262,-1.045 -2.693,-2.23 -5.469,-2.23c-0.552,0 -1,0.448 -1,1s0.448,1 1,1c2.055,0 3.046,0.82 4.193,1.771c1.263,1.044001 2.693,2.229 5.469,2.229c2.776,0 4.207001,-1.184999 5.47,-2.229c1.146999,-0.951 2.138,-1.771 4.194,-1.771c2.056999,0 3.048,0.82 4.195999,1.771c1.263,1.044001 2.694,2.229 5.471001,2.229c2.776001,0 4.207001,-1.184999 5.470001,-2.229c1.146999,-0.951 2.139,-1.771 4.195,-1.771c2.057999,0 3.049,0.82 4.196999,1.771c1.264,1.044001 2.695999,2.229 5.473999,2.229c2.777,0 4.209,-1.184999 5.473,-2.229c1.148003,-0.950001 2.140003,-1.771 4.198002,-1.771c0.553001,0 1,-0.448 1,-1s-0.446999,-1 -1,-1z"/>
  <path fill="#3f007f" id="svg_5" d="m59,32c-2.778,0 -4.209999,1.185001 -5.473999,2.229c-1.148003,0.951 -2.139,1.771 -4.197002,1.771s-3.049999,-0.820999 -4.197998,-1.771c-1.264,-1.043999 -2.695,-2.229 -5.473,-2.229c-2.776001,0 -4.208,1.185001 -5.471001,2.23c-1.146999,0.950001 -2.138,1.77 -4.194,1.77c-2.056999,0 -3.048,-0.82 -4.195999,-1.771c-1.263,-1.043999 -2.694,-2.229 -5.471001,-2.229c-2.776001,0 -4.207001,1.185001 -5.47,2.229c-1.148,0.951 -2.139,1.771 -4.194,1.771c-2.054999,0 -3.045,-0.82 -4.193,-1.77c-1.262,-1.044998 -2.693,-2.23 -5.469,-2.23c-0.552,0 -1,0.448002 -1,1s0.448,1 1,1c2.055,0 3.046,0.82 4.193,1.771c1.263,1.043999 2.693,2.229 5.469,2.229c2.776,0 4.207001,-1.185001 5.47,-2.229c1.146999,-0.951 2.138,-1.771 4.194,-1.771c2.056999,0 3.048,0.82 4.195999,1.771c1.263,1.043999 2.694,2.229 5.471001,2.229c2.776001,0 4.207001,-1.185001 5.470001,-2.229c1.146999,-0.951 2.139,-1.771 4.195,-1.771c2.057999,0 3.049,0.82 4.196999,1.771c1.264,1.043999 2.695999,2.229 5.473999,2.229c2.777,0 4.209,-1.185001 5.473,-2.229c1.148003,-0.950001 2.140003,-1.771 4.198002,-1.771c0.553001,0 1,-0.448002 1,-1s-0.446999,-1 -1,-1z"/>
  <path fill="#3f007f" id="svg_6" d="m59,40c-2.778,0 -4.209999,1.185001 -5.473999,2.229c-1.148003,0.951 -2.139,1.771 -4.197002,1.771s-3.049999,-0.820999 -4.197998,-1.771c-1.264,-1.043999 -2.695,-2.229 -5.473,-2.229c-2.776001,0 -4.208,1.185001 -5.471001,2.23c-1.146999,0.950001 -2.138,1.77 -4.194,1.77c-2.056999,0 -3.048,-0.82 -4.195999,-1.771c-1.263,-1.043999 -2.694,-2.229 -5.471001,-2.229c-2.776001,0 -4.207001,1.185001 -5.47,2.229c-1.148,0.951 -2.139,1.771 -4.194,1.771c-2.054999,0 -3.045,-0.82 -4.193,-1.77c-1.262,-1.044998 -2.693,-2.23 -5.469,-2.23c-0.552,0 -1,0.448002 -1,1s0.448,1 1,1c2.055,0 3.046,0.82 4.193,1.771c1.263,1.043999 2.693,2.229 5.469,2.229c2.776,0 4.207001,-1.185001 5.47,-2.229c1.146999,-0.951 2.138,-1.771 4.194,-1.771c2.056999,0 3.048,0.82 4.195999,1.771c1.263,1.043999 2.694,2.229 5.471001,2.229c2.776001,0 4.207001,-1.185001 5.470001,-2.229c1.146999,-0.951 2.139,-1.771 4.195,-1.771c2.057999,0 3.049,0.82 4.196999,1.771c1.264,1.043999 2.695999,2.229 5.473999,2.229c2.777,0 4.209,-1.185001 5.473,-2.229c1.148003,-0.950001 2.140003,-1.771 4.198002,-1.771c0.553001,0 1,-0.448002 1,-1s-0.446999,-1 -1,-1z"/>
  <circle fill="#3f007f" id="svg_7" r="2" cy="50" cx="10"/>
  <circle fill="#3f007f" id="svg_8" r="2" cy="50" cx="20"/>
  <circle fill="#3f007f" id="svg_9" r="2" cy="50" cx="30"/>
  <circle fill="#3f007f" id="svg_10" r="2" cy="50" cx="40"/>
  <circle fill="#3f007f" id="svg_11" r="2" cy="50" cx="50"/>
 </g>
</svg>