<svg width="59.99999999999999" height="59.99999999999999" xmlns="http://www.w3.org/2000/svg">

 <g>
  <title>background</title>
  <rect fill="none" id="canvas_background" height="402" width="582" y="-1" x="-1"/>
 </g>
 <g>
  <title>Layer 1</title>
  <path id="svg_1" d="m59,0l-58,0c-0.552,0 -1,0.448 -1,1l0,58c0,0.551998 0.448,1 1,1l58,0c0.553001,0 1,-0.448002 1,-1l0,-58c0,-0.552 -0.446999,-1 -1,-1zm-5.473999,30.229c-1.148003,0.951 -2.139,1.771 -4.197002,1.771s-3.049999,-0.820999 -4.197998,-1.771c-1.264,-1.044001 -2.695,-2.229 -5.473,-2.229c-2.776001,0 -4.208,1.184999 -5.471001,2.23c-1.146999,0.950001 -2.138,1.77 -4.194,1.77c-2.056999,0 -3.048,-0.82 -4.195999,-1.771c-1.263,-1.044001 -2.694,-2.229 -5.471001,-2.229c-2.776001,0 -4.207001,1.184999 -5.47,2.229c-1.148,0.951 -2.139,1.771 -4.194,1.771c-2.054999,0 -3.045,-0.82 -4.193,-1.77c-1.101,-0.911999 -2.331,-1.927999 -4.469,-2.174l0,-5.973c1.406,0.223 2.252,0.907999 3.193,1.687c1.263,1.045 2.693,2.23 5.469,2.23c2.776,0 4.207001,-1.184999 5.47,-2.229c1.146999,-0.951 2.138,-1.771 4.194,-1.771c2.056999,0 3.048,0.82 4.195999,1.771c1.263,1.044001 2.694,2.229 5.471001,2.229c2.776001,0 4.207001,-1.184999 5.470001,-2.229c1.146999,-0.951 2.139,-1.771 4.195,-1.771c2.057999,0 3.049,0.82 4.196999,1.771c1.264,1.044001 2.695999,2.229 5.473999,2.229c2.777,0 4.209,-1.184999 5.473,-2.229c0.943001,-0.780001 1.790001,-1.465 3.198002,-1.688l0,5.973c-2.139999,0.245001 -3.370998,1.262001 -4.473999,2.173zm4.473999,-0.146l0,5.973c-2.139999,0.244999 -3.370998,1.262001 -4.473999,2.173c-1.148003,0.951 -2.139,1.771 -4.197002,1.771s-3.049999,-0.820999 -4.197998,-1.771c-1.264,-1.043999 -2.695,-2.229 -5.473,-2.229c-2.776001,0 -4.208,1.185001 -5.471001,2.23c-1.146999,0.950001 -2.138,1.77 -4.194,1.77c-2.056999,0 -3.048,-0.82 -4.195999,-1.771c-1.263,-1.043999 -2.694,-2.229 -5.471001,-2.229c-2.776001,0 -4.207001,1.185001 -5.47,2.229c-1.148,0.951 -2.139,1.771 -4.194,1.771c-2.054999,0 -3.045,-0.82 -4.193,-1.77c-1.101,-0.911999 -2.331,-1.928001 -4.469,-2.174l0,-5.973c1.406,0.223 2.252,0.907999 3.193,1.687c1.263,1.044998 2.693,2.23 5.469,2.23c2.776,0 4.207001,-1.185001 5.47,-2.229c1.146999,-0.951 2.138,-1.771 4.194,-1.771c2.056999,0 3.048,0.82 4.195999,1.771c1.263,1.043999 2.694,2.229 5.471001,2.229c2.776001,0 4.207001,-1.185001 5.470001,-2.229c1.146999,-0.951 2.139,-1.771 4.195,-1.771c2.057999,0 3.049,0.82 4.196999,1.771c1.264,1.043999 2.695999,2.229 5.473999,2.229c2.777,0 4.209,-1.185001 5.473,-2.229c0.943001,-0.780001 1.790001,-1.465 3.198002,-1.688zm-4.473999,-7.854c-1.148003,0.951 -2.139,1.771 -4.197002,1.771s-3.049999,-0.820999 -4.197998,-1.771c-1.264,-1.044001 -2.695,-2.229 -5.473,-2.229c-2.776001,0 -4.208,1.184999 -5.471001,2.23c-1.146999,0.950001 -2.138,1.77 -4.194,1.77c-2.056999,0 -3.048,-0.82 -4.195999,-1.771c-1.263,-1.044001 -2.694,-2.229 -5.471001,-2.229c-2.776001,0 -4.207001,1.184999 -5.47,2.229c-1.148,0.951 -2.139,1.771 -4.194,1.771c-2.054999,0 -3.045,-0.82 -4.193,-1.77c-1.101,-0.911999 -2.331,-1.927999 -4.469,-2.174l0,-5.973c1.406,0.223 2.252,0.908 3.193,1.687c1.263,1.045 2.693,2.23 5.469,2.23c2.776,0 4.207001,-1.184999 5.47,-2.229c1.146999,-0.951 2.138,-1.771 4.194,-1.771c2.056999,0 3.048,0.82 4.195999,1.771c1.263,1.044001 2.694,2.229 5.471001,2.229c2.776001,0 4.207001,-1.184999 5.470001,-2.229c1.146999,-0.951 2.139,-1.771 4.195,-1.771c2.057999,0 3.049,0.82 4.196999,1.771c1.264,1.044001 2.695999,2.229 5.473999,2.229c2.777,0 4.209,-1.184999 5.473,-2.229c0.943001,-0.78 1.790001,-1.465 3.198002,-1.688l0,5.973c-2.139999,0.245001 -3.370998,1.262001 -4.473999,2.173zm0,-8c-1.148003,0.951 -2.139,1.771 -4.197002,1.771s-3.049999,-0.821 -4.197998,-1.771c-1.264,-1.044 -2.695,-2.229 -5.473,-2.229c-2.776001,0 -4.208,1.185 -5.471001,2.23c-1.146999,0.950001 -2.138,1.77 -4.194,1.77c-2.056999,0 -3.048,-0.82 -4.195999,-1.771c-1.263,-1.044 -2.694,-2.229 -5.471001,-2.229c-2.776001,0 -4.207001,1.185 -5.47,2.229c-1.148,0.951 -2.139,1.771 -4.194,1.771c-2.054999,0 -3.045,-0.82 -4.193,-1.77c-1.101,-0.912 -2.331,-1.927999 -4.469,-2.174l0,-5.973c1.406,0.223 2.252,0.908 3.193,1.687c1.263,1.045 2.693,2.23 5.469,2.23c2.776,0 4.207001,-1.185 5.47,-2.229c1.146999,-0.951 2.138,-1.771 4.194,-1.771c2.056999,0 3.048,0.82 4.195999,1.771c1.263,1.044 2.694,2.229 5.471001,2.229c2.776001,0 4.207001,-1.185 5.470001,-2.229c1.146999,-0.951 2.139,-1.771 4.195,-1.771c2.057999,0 3.049,0.82 4.196999,1.771c1.264,1.044 2.695999,2.229 5.473999,2.229c2.777,0 4.209,-1.185 5.473,-2.229c0.943001,-0.78 1.790001,-1.465 3.198002,-1.688l0,5.973c-2.139999,0.245 -3.370998,1.262 -4.473999,2.173zm-51.526001,23.854c1.406,0.223 2.252,0.908001 3.193,1.687c1.263,1.044998 2.693,2.23 5.469,2.23c2.776,0 4.207001,-1.185001 5.47,-2.229c1.146999,-0.951 2.138,-1.771 4.194,-1.771c2.056999,0 3.048,0.82 4.195999,1.771c1.263,1.043999 2.694,2.229 5.471001,2.229c2.776001,0 4.207001,-1.185001 5.470001,-2.229c1.146999,-0.951 2.139,-1.771 4.195,-1.771c2.057999,0 3.049,0.82 4.196999,1.771c1.264,1.043999 2.695999,2.229 5.473999,2.229c2.777,0 4.209,-1.185001 5.473,-2.229c0.943001,-0.779999 1.790001,-1.465 3.198002,-1.688l0,5.973c-2.139999,0.244999 -3.370998,1.262001 -4.473999,2.173c-1.148003,0.951 -2.139,1.771 -4.197002,1.771s-3.049999,-0.820999 -4.197998,-1.771c-1.264,-1.043999 -2.695,-2.229 -5.473,-2.229c-2.776001,0 -4.208,1.185001 -5.471001,2.23c-1.146999,0.950001 -2.138,1.77 -4.194,1.77c-2.056999,0 -3.048,-0.82 -4.195999,-1.771c-1.263,-1.043999 -2.694,-2.229 -5.471001,-2.229c-2.776001,0 -4.207001,1.185001 -5.47,2.229c-1.148,0.951 -2.139,1.771 -4.194,1.771c-2.054999,0 -3.045,-0.82 -4.193,-1.77c-1.101,-0.911999 -2.331,-1.928001 -4.469,-2.174l0,-5.973zm56,-36.083l0,2.056c-2.139999,0.245 -3.370998,1.262 -4.473999,2.173c-1.148003,0.951 -2.139,1.771 -4.197002,1.771s-3.049999,-0.821 -4.197998,-1.771c-1.264,-1.044 -2.695,-2.229 -5.473,-2.229c-2.776001,0 -4.208,1.185 -5.471001,2.23c-1.146999,0.95 -2.138,1.77 -4.194,1.77c-2.056999,0 -3.048,-0.82 -4.195999,-1.771c-1.263,-1.044 -2.694,-2.229 -5.471001,-2.229c-2.776001,0 -4.207001,1.185 -5.47,2.229c-1.148,0.951 -2.139,1.771 -4.194,1.771c-2.056,0 -3.046,-0.82 -4.193,-1.77c-1.101,-0.912 -2.331,-1.928 -4.469,-2.174l0,-2.056l56,0zm-56,56l0,-11.917c1.406,0.223 2.252,0.908001 3.193,1.687c1.263,1.044998 2.693,2.23 5.469,2.23c2.776,0 4.207001,-1.185001 5.47,-2.229c1.146999,-0.951 2.138,-1.771 4.194,-1.771c2.056999,0 3.048,0.82 4.195999,1.771c1.263,1.043999 2.694,2.229 5.471001,2.229c2.776001,0 4.207001,-1.185001 5.470001,-2.229c1.146999,-0.951 2.139,-1.771 4.195,-1.771c2.057999,0 3.049,0.82 4.196999,1.771c1.264,1.043999 2.695999,2.229 5.473999,2.229c2.777,0 4.209,-1.185001 5.473,-2.229c0.943001,-0.779999 1.790001,-1.465 3.198002,-1.688l0,11.917l-56,0z"/>
  <circle id="svg_2" r="2" cy="54" cx="10"/>
  <circle id="svg_3" r="2" cy="54" cx="20"/>
  <circle id="svg_4" r="2" cy="54" cx="30"/>
  <circle id="svg_5" r="2" cy="54" cx="40"/>
  <circle id="svg_6" r="2" cy="54" cx="50"/>
 </g>
</svg>